# xmcd CD database file
#
# Track frame offsets:
#	180
#	17768
#	31557
#	39386
#	53936
#	65796
#	75567
#	91096
#	102592
#	109207
#	129792
#	139716
#	153241
#	164183
#	183485
#	192521
#	203184
#	224326
#	234733
#	250782
#	270629
#	282638
#	299596
#	312882
#
# Disc length: 4267 seconds
#
# Revision: 3
# Processed by: cddbd v1.5.2PL0 Copyright (c) Steve Scherf et al.
# Submitted via: CDex 1.70beta2
#
DISCID=6610a918
DTITLE=Memphis 55 - Good rockin `tonight
DYEAR=1900
DGENRE=Rock 'N' Roll
TTITLE0=1Boppin` The Blues
TTITLE1=2She`s Fine
TTITLE2=3Good Rockin` Tonight
TTITLE3=4I`m Left, Yoú re Right, She`s Gone (My Baby`s Gone)
TTITLE4=5Just Because
TTITLE5=6Baby, Let`s Play House
TTITLE6=7Find Out What`s Happening
TTITLE7=8Honey Don`t
TTITLE8=9In My Way
TTITLE9=10Reconsider Baby
TTITLE10=11Matchbox
TTITLE11=12Just A Little Bit
TTITLE12=13Trying To Get To You
TTITLE13=14Milkcow Blues Boogie
TTITLE14=15So Glad You`re Min
TTITLE15=16Little Queenie
TTITLE16=17Help The Poor
TTITLE17=18Befor You Accuse Me
TTITLE18=19Mystery Train (Memphis Midnight Blues Cafe)
TTITLE19=20One For My Baby (And One More For The Road)
TTITLE20=21They Remind Me Too Much Of You
TTITLE21=22I Need Somebody To Lean On
TTITLE22=23Love Letters
TTITLE23=24Mystery Train (Reprise)
EXTD=
EXTT0=
EXTT1=
EXTT2=
EXTT3=
EXTT4=
EXTT5=
EXTT6=
EXTT7=
EXTT8=
EXTT9=
EXTT10=
EXTT11=
EXTT12=
EXTT13=
EXTT14=
EXTT15=
EXTT16=
EXTT17=
EXTT18=
EXTT19=
EXTT20=
EXTT21=
EXTT22=
EXTT23=
PLAYORDER=
